<svg height='100px' width='100px'  fill="#1A1A1A" xmlns="http://www.w3.org/2000/svg" xmlns:xlink="http://www.w3.org/1999/xlink" xml:space="preserve" version="1.1" style="shape-rendering:geometricPrecision;text-rendering:geometricPrecision;image-rendering:optimizeQuality;" viewBox="0 0 333 333" x="0px" y="0px" fill-rule="evenodd" clip-rule="evenodd"><defs><style type="text/css">
   
    .fil0 {fill:#1A1A1A}
   
  </style></defs><g><path class="fil0" d="M167 26c22,0 42,5 61,14l-126 59 15 -64c16,-6 32,-9 50,-9zm75 21c31,20 53,51 62,87l-121 -59 59 -28zm65 103c0,6 1,11 1,17 0,31 -10,60 -28,83l-28 -126 55 26zm-37 113c-23,25 -55,41 -91,44l78 -99 13 55zm-108 45c-38,-2 -71,-18 -96,-42l129 0 -33 42zm-108 -56c-18,-24 -28,-53 -28,-85 0,-7 0,-14 1,-21l84 106 -57 0zm-23 -123c10,-38 36,-70 71,-88l-33 137 -38 -49z"></path></g></svg>